<?xml version="1.0" encoding="utf-8"?>
<!-- Generator: Adobe Illustrator 21.1.0, SVG Export Plug-In . SVG Version: 6.00 Build 0)  -->
<svg version="1.1" id="Warstwa_1" xmlns="http://www.w3.org/2000/svg" xmlns:xlink="http://www.w3.org/1999/xlink" x="0px" y="0px"
	 viewBox="0 0 792 792" style="enable-background:new 0 0 792 792;" xml:space="preserve">
<style type="text/css">
	.st0{fill-rule:evenodd;clip-rule:evenodd;}
</style>
<path class="st0" d="M691.7,144.9c-23.1-17.1-49.1-27.3-75-30.7c-1-7.2-2.5-13.5-4.1-18.8l0-0.1c-6.5-17.6-18.2-28.9-33.8-32.7
	c-5.4-1.3-10.9-2-16.3-2c-24.2,0-43.4,13.2-57.4,24.6c-22.5,18.5-74.6,68.1-84.8,140.4c-6.2-6.4-13.3-9.8-22.1-10.7
	c-0.9-0.1-1.8-0.1-2.7-0.1c-0.3,0-1,0-1,0c-0.2,0-0.3,0-0.5,0c-8.9,0.9-15.9,4.3-22.1,10.7c-10.2-72.2-62.2-121.9-84.8-140.4
	c-14-11.5-33.2-24.6-57.4-24.6c-5.4,0-10.9,0.7-16.3,2c-15.6,3.8-27.3,15.1-33.8,32.7l0,0.1c-1.6,5.3-3.1,11.6-4.1,18.8
	c-25.9,3.4-51.8,13.5-74.9,30.7c-66.4,49.2-84.3,137.6-40,197.3c30.9,41.7,84.1,58.4,135.9,47.9c-18.6,33.1-29.3,71.4-29.3,112.1
	c0,126.5,102.6,229.1,229.1,229.1c126.5,0,229.1-102.6,229.1-229.1c0-40.7-10.6-79-29.3-112.1c51.8,10.5,105-6.2,135.9-47.9
	C776,282.5,758.1,194.2,691.7,144.9z M313.9,225.7c16.3,11.1,32.2,23.3,42.6,53.5c1.4,4,2.6,6.6,4.2,11c0,0-10.8,62.3-87.4,73.1
	c0,0-27.5,7.6-62.2-1.4c-13.9-4.5-23.9-23.1-25.9-41c-2.8-30.5,13.7-58.3,26-75.8c0.1,2.1,0.5,6.9,3.7,11.7c2.7,4,6,6.2,7.8,7.3
	c-13.6-54.5-52.6-106.6-32.2-167.9c3.7-7.6,8.4-13.7,14.8-17.7c17.1-11.2,43.9-6.5,59.1,3.6c46.9,32.4,89.3,87.1,100.3,156
	c-1,2.1-2.1,4.3-3,6.9c-2.3,6.3-3.3,12.2-3.7,16.9c-2.9-6.3-8.6-16.6-19.2-26.1c-9.5-8.5-19.1-13-25.3-15.3
	c-1.9-0.6-4.1-1.2-6.5-1.7c-2.9-0.5-5.5-0.8-7.7-0.9C305.1,221,309.6,223.1,313.9,225.7z M426.9,275.3L426.9,275.3
	c-0.1,0.9-0.1,1.7-0.2,2.6c-3.5,6.9-6.5,15.9-3.3,24.3c0.9,2.4,2.4,3.9,2.4,6.5c0,6.1-7.4,11.2-14.3,14.7c-1.7,0.9-4.3,1.9-7.7,2.6
	c-6.9,1.5-12.7,0.6-16.1-0.1c-5.3-1.4-9.1-3.6-11.5-5.1c-3.8-2.5-10-6.6-10.1-12.1c-0.1-2.8,1.6-4.3,2.4-6.5
	c3.2-8.4,0.3-17.4-3.3-24.3c-0.1-0.7-0.3-1.6-0.4-2.5l0,0c0,0,0,0,0,0c-0.1-0.6-0.1-1.1-0.2-1.7c0,0,0-0.1,0-0.1
	c-0.1-0.6-0.1-1.2-0.1-1.9c0-0.1,0-0.2,0-0.2c0-0.6,0-1.1,0-1.7c0-0.2,0-0.4,0-0.5c0-0.7,0-1.4,0-2.1c0.3-6.4,1.8-11.1,3.3-15.5
	c1.8-5.3,3.4-10,7.3-15.2c1.8-2.4,4.2-5.5,8.4-8c2.1-1.3,6.3-3.8,12.1-3.8c5.6,0,9.5,2.3,11.9,3.6c5,2.9,7.8,6.5,9.6,8.9
	c1.1,1.4,4.5,6.1,7.1,14.6c0.1,0.3,0.2,0.7,0.3,1c0,0.1,0.1,0.3,0.1,0.4c0.1,0.2,0.1,0.4,0.2,0.7c0.1,0.2,0.1,0.4,0.2,0.6
	c0,0.2,0.1,0.4,0.1,0.6c0.1,0.2,0.1,0.5,0.2,0.7c0,0.2,0.1,0.3,0.1,0.5c0.1,0.3,0.1,0.5,0.2,0.8c0,0.2,0.1,0.3,0.1,0.5
	c0.1,0.3,0.1,0.6,0.2,0.9c0,0.1,0.1,0.3,0.1,0.4c0.1,0.3,0.1,0.7,0.2,1c0,0.1,0,0.2,0.1,0.4c0.1,0.4,0.1,0.8,0.2,1.2
	c0,0.1,0,0.2,0,0.3c0.1,0.4,0.1,0.8,0.2,1.3c0,0.1,0,0.1,0,0.2c0.1,0.5,0.1,0.9,0.2,1.4c0,0,0,0,0,0.1
	C427.1,267.6,427.2,271.3,426.9,275.3L426.9,275.3z M577,256.8c3.2-4.8,3.6-9.6,3.7-11.7c12.3,17.5,28.9,45.3,26,75.8
	c-1.9,17.9-12,36.5-25.9,41c-34.6,9-62.2,1.4-62.2,1.4c-76.6-10.7-87.4-73.1-87.4-73.1c1.6-4.4,2.8-7,4.2-11
	c10.4-30.2,26.4-42.3,42.6-53.5c4.3-2.6,8.8-4.7,14.6-8c-2.3,0.1-4.9,0.3-7.7,0.9c-2.4,0.5-4.6,1.1-6.5,1.7
	c-6.2,2.3-15.8,6.8-25.3,15.3c-10.7,9.6-16.4,19.9-19.2,26.1c-0.4-4.7-1.4-10.5-3.7-16.9c-0.9-2.5-2-4.8-3-6.9
	c11-68.9,53.4-123.6,100.3-156c15.2-10.1,42-14.8,59.1-3.6c6.5,4.1,11.1,10.2,14.8,17.7c20.4,61.3-18.6,113.5-32.2,167.9
	C571,263,574.3,260.8,577,256.8z"/>
</svg>
